<svg width="115" height="114" viewBox="0 0 115 114" fill="none" xmlns="http://www.w3.org/2000/svg">
<g opacity="0.76">
<path d="M46.9115 53.7539H43.6185V41.3438C42.4154 42.4688 40.9974 43.3008 39.3646 43.8398V40.8516C40.224 40.5703 41.1576 40.0391 42.1654 39.2578C43.1732 38.4688 43.8646 37.5508 44.2396 36.5039H46.9115V53.7539ZM58.3021 53.7539V50.2969H51.2708V47.4141L58.724 36.5039H61.4896V47.4023H63.6224V50.2969H61.4896V53.7539H58.3021ZM58.3021 47.4023V41.5312L54.3529 47.4023H58.3021ZM69.681 51.2812V46.8164H65.181V43.7344H69.681V39.2695H72.681V43.7344H77.1927V46.8164H72.681V51.2812H69.681ZM38.4886 76.7539V71.3311L33.7689 63.8691H36.8187L39.8509 68.9668L42.8216 63.8691H45.8187L41.0814 71.3486V76.7539H38.4886ZM51.4964 73.7832L53.9574 74.1963C53.6409 75.0986 53.14 75.7871 52.4544 76.2617C51.7747 76.7305 50.9222 76.9648 49.8968 76.9648C48.2738 76.9648 47.0726 76.4346 46.2933 75.374C45.6781 74.5244 45.3704 73.4521 45.3704 72.1572C45.3704 70.6104 45.7747 69.4004 46.5833 68.5273C47.3919 67.6484 48.4144 67.209 49.6507 67.209C51.0394 67.209 52.1351 67.6689 52.9378 68.5889C53.7406 69.5029 54.1243 70.9062 54.0892 72.7988H47.9017C47.9193 73.5312 48.1185 74.1025 48.4993 74.5127C48.8802 74.917 49.3548 75.1191 49.9232 75.1191C50.3099 75.1191 50.6351 75.0137 50.8988 74.8027C51.1624 74.5918 51.3617 74.252 51.4964 73.7832ZM51.637 71.2871C51.6195 70.5723 51.4349 70.0303 51.0833 69.6611C50.7318 69.2861 50.304 69.0986 49.8001 69.0986C49.2611 69.0986 48.8158 69.2949 48.4642 69.6875C48.1126 70.0801 47.9398 70.6133 47.9456 71.2871H51.637ZM57.9564 70.2676L55.7152 69.8633C55.9671 68.9609 56.4007 68.293 57.0159 67.8594C57.6312 67.4258 58.5452 67.209 59.7581 67.209C60.8597 67.209 61.68 67.3408 62.2191 67.6045C62.7581 67.8623 63.1361 68.1934 63.3529 68.5977C63.5755 68.9961 63.6868 69.7314 63.6868 70.8037L63.6605 73.6865C63.6605 74.5068 63.6986 75.1133 63.7747 75.5059C63.8568 75.8926 64.0062 76.3086 64.223 76.7539H61.7796C61.7152 76.5898 61.6361 76.3467 61.5423 76.0244C61.5013 75.8779 61.472 75.7812 61.4544 75.7344C61.0326 76.1445 60.5814 76.4521 60.1009 76.6572C59.6204 76.8623 59.1077 76.9648 58.5628 76.9648C57.6019 76.9648 56.8431 76.7041 56.2865 76.1826C55.7357 75.6611 55.4603 75.002 55.4603 74.2051C55.4603 73.6777 55.5863 73.209 55.8382 72.7988C56.0902 72.3828 56.4417 72.0664 56.8929 71.8496C57.3499 71.627 58.0062 71.4336 58.8617 71.2695C60.0159 71.0527 60.8158 70.8506 61.2611 70.6631V70.417C61.2611 69.9424 61.1439 69.6055 60.9095 69.4062C60.6751 69.2012 60.2327 69.0986 59.5824 69.0986C59.1429 69.0986 58.8001 69.1865 58.554 69.3623C58.3079 69.5322 58.1087 69.834 57.9564 70.2676ZM61.2611 72.2715C60.9447 72.377 60.4437 72.5029 59.7581 72.6494C59.0726 72.7959 58.6243 72.9395 58.4134 73.0801C58.0911 73.3086 57.93 73.5986 57.93 73.9502C57.93 74.2959 58.0589 74.5947 58.3167 74.8467C58.5745 75.0986 58.9027 75.2246 59.3011 75.2246C59.7464 75.2246 60.1712 75.0781 60.5755 74.7852C60.8743 74.5625 61.0706 74.29 61.1644 73.9678C61.2288 73.7568 61.2611 73.3555 61.2611 72.7637V72.2715ZM68.4945 76.7539H66.0247V67.4199H68.3187V68.7471C68.7113 68.1201 69.0628 67.707 69.3734 67.5078C69.6898 67.3086 70.0472 67.209 70.4456 67.209C71.0081 67.209 71.5501 67.3643 72.0716 67.6748L71.307 69.8281C70.8909 69.5586 70.5042 69.4238 70.1468 69.4238C69.8011 69.4238 69.5081 69.5205 69.2679 69.7139C69.0277 69.9014 68.8372 70.2441 68.6966 70.7422C68.5618 71.2402 68.4945 72.2832 68.4945 73.8711V76.7539ZM72.2738 74.0908L74.7523 73.7129C74.8577 74.1934 75.0716 74.5596 75.3939 74.8115C75.7161 75.0576 76.1673 75.1807 76.7474 75.1807C77.3861 75.1807 77.8665 75.0635 78.1888 74.8291C78.4056 74.665 78.514 74.4453 78.514 74.1699C78.514 73.9824 78.4554 73.8271 78.3382 73.7041C78.2152 73.5869 77.9398 73.4785 77.512 73.3789C75.5199 72.9395 74.2572 72.5381 73.724 72.1748C72.9857 71.6709 72.6165 70.9707 72.6165 70.0742C72.6165 69.2656 72.9359 68.5859 73.5745 68.0352C74.2132 67.4844 75.2034 67.209 76.5452 67.209C77.8226 67.209 78.7718 67.417 79.3929 67.833C80.014 68.249 80.4417 68.8643 80.6761 69.6787L78.347 70.1094C78.2474 69.7461 78.057 69.4678 77.7757 69.2744C77.5003 69.0811 77.1048 68.9844 76.5892 68.9844C75.9388 68.9844 75.473 69.0752 75.1917 69.2568C75.0042 69.3857 74.9105 69.5527 74.9105 69.7578C74.9105 69.9336 74.9925 70.083 75.1566 70.2061C75.3792 70.3701 76.1468 70.6016 77.4593 70.9004C78.7777 71.1992 79.6976 71.5654 80.2191 71.999C80.7347 72.4385 80.9925 73.0508 80.9925 73.8359C80.9925 74.6914 80.6351 75.4268 79.9202 76.042C79.2054 76.6572 78.1478 76.9648 76.7474 76.9648C75.4759 76.9648 74.4681 76.707 73.724 76.1914C72.9857 75.6758 72.5023 74.9756 72.2738 74.0908Z" fill="white"/>
<path d="M57.5 112.007C88.4279 112.007 113.5 87.2689 113.5 56.7533C113.5 26.2378 88.4279 1.5 57.5 1.5C26.5721 1.5 1.5 26.2378 1.5 56.7533C1.5 87.2689 26.5721 112.007 57.5 112.007Z" stroke="white" stroke-width="3" stroke-dasharray="10 5"/>
</g>
</svg>
