<svg width="494" height="172" viewBox="0 0 494 172" fill="none" xmlns="http://www.w3.org/2000/svg">
<path d="M0 0H494V129L410 172L283.5 95L0 129V0Z" fill="#BD0A0A"/>
<path d="M393.411 75H390.118V62.5898C388.915 63.7148 387.497 64.5469 385.865 65.0859V62.0977C386.724 61.8164 387.658 61.2852 388.665 60.5039C389.673 59.7148 390.365 58.7969 390.74 57.75H393.411V75ZM404.802 75V71.543H397.771V68.6602L405.224 57.75H407.99V68.6484H410.122V71.543H407.99V75H404.802ZM404.802 68.6484V62.7773L400.853 68.6484H404.802ZM416.181 72.5273V68.0625H411.681V64.9805H416.181V60.5156H419.181V64.9805H423.693V68.0625H419.181V72.5273H416.181ZM384.989 98V92.5771L380.269 85.1152H383.319L386.351 90.2129L389.322 85.1152H392.319L387.581 92.5947V98H384.989ZM397.996 95.0293L400.457 95.4424C400.141 96.3447 399.64 97.0332 398.954 97.5078C398.275 97.9766 397.422 98.2109 396.397 98.2109C394.774 98.2109 393.573 97.6807 392.793 96.6201C392.178 95.7705 391.87 94.6982 391.87 93.4033C391.87 91.8564 392.275 90.6465 393.083 89.7734C393.892 88.8945 394.914 88.4551 396.151 88.4551C397.539 88.4551 398.635 88.915 399.438 89.835C400.241 90.749 400.624 92.1523 400.589 94.0449H394.402C394.419 94.7773 394.618 95.3486 394.999 95.7588C395.38 96.1631 395.855 96.3652 396.423 96.3652C396.81 96.3652 397.135 96.2598 397.399 96.0488C397.662 95.8379 397.862 95.498 397.996 95.0293ZM398.137 92.5332C398.119 91.8184 397.935 91.2764 397.583 90.9072C397.232 90.5322 396.804 90.3447 396.3 90.3447C395.761 90.3447 395.316 90.541 394.964 90.9336C394.613 91.3262 394.44 91.8594 394.446 92.5332H398.137ZM404.456 91.5137L402.215 91.1094C402.467 90.207 402.901 89.5391 403.516 89.1055C404.131 88.6719 405.045 88.4551 406.258 88.4551C407.36 88.4551 408.18 88.5869 408.719 88.8506C409.258 89.1084 409.636 89.4395 409.853 89.8438C410.076 90.2422 410.187 90.9775 410.187 92.0498L410.16 94.9326C410.16 95.7529 410.199 96.3594 410.275 96.752C410.357 97.1387 410.506 97.5547 410.723 98H408.28C408.215 97.8359 408.136 97.5928 408.042 97.2705C408.001 97.124 407.972 97.0273 407.954 96.9805C407.533 97.3906 407.081 97.6982 406.601 97.9033C406.12 98.1084 405.608 98.2109 405.063 98.2109C404.102 98.2109 403.343 97.9502 402.786 97.4287C402.236 96.9072 401.96 96.248 401.96 95.4512C401.96 94.9238 402.086 94.4551 402.338 94.0449C402.59 93.6289 402.942 93.3125 403.393 93.0957C403.85 92.873 404.506 92.6797 405.362 92.5156C406.516 92.2988 407.316 92.0967 407.761 91.9092V91.6631C407.761 91.1885 407.644 90.8516 407.41 90.6523C407.175 90.4473 406.733 90.3447 406.082 90.3447C405.643 90.3447 405.3 90.4326 405.054 90.6084C404.808 90.7783 404.609 91.0801 404.456 91.5137ZM407.761 93.5176C407.445 93.623 406.944 93.749 406.258 93.8955C405.573 94.042 405.124 94.1855 404.913 94.3262C404.591 94.5547 404.43 94.8447 404.43 95.1963C404.43 95.542 404.559 95.8408 404.817 96.0928C405.075 96.3447 405.403 96.4707 405.801 96.4707C406.246 96.4707 406.671 96.3242 407.076 96.0312C407.374 95.8086 407.571 95.5361 407.664 95.2139C407.729 95.0029 407.761 94.6016 407.761 94.0098V93.5176ZM414.994 98H412.525V88.666H414.819V89.9932C415.211 89.3662 415.563 88.9531 415.873 88.7539C416.19 88.5547 416.547 88.4551 416.946 88.4551C417.508 88.4551 418.05 88.6104 418.572 88.9209L417.807 91.0742C417.391 90.8047 417.004 90.6699 416.647 90.6699C416.301 90.6699 416.008 90.7666 415.768 90.96C415.528 91.1475 415.337 91.4902 415.197 91.9883C415.062 92.4863 414.994 93.5293 414.994 95.1172V98ZM418.774 95.3369L421.252 94.959C421.358 95.4395 421.572 95.8057 421.894 96.0576C422.216 96.3037 422.667 96.4268 423.247 96.4268C423.886 96.4268 424.367 96.3096 424.689 96.0752C424.906 95.9111 425.014 95.6914 425.014 95.416C425.014 95.2285 424.955 95.0732 424.838 94.9502C424.715 94.833 424.44 94.7246 424.012 94.625C422.02 94.1855 420.757 93.7842 420.224 93.4209C419.486 92.917 419.117 92.2168 419.117 91.3203C419.117 90.5117 419.436 89.832 420.075 89.2812C420.713 88.7305 421.703 88.4551 423.045 88.4551C424.323 88.4551 425.272 88.6631 425.893 89.0791C426.514 89.4951 426.942 90.1104 427.176 90.9248L424.847 91.3555C424.747 90.9922 424.557 90.7139 424.276 90.5205C424 90.3271 423.605 90.2305 423.089 90.2305C422.439 90.2305 421.973 90.3213 421.692 90.5029C421.504 90.6318 421.41 90.7988 421.41 91.0039C421.41 91.1797 421.493 91.3291 421.657 91.4521C421.879 91.6162 422.647 91.8477 423.959 92.1465C425.278 92.4453 426.198 92.8115 426.719 93.2451C427.235 93.6846 427.493 94.2969 427.493 95.082C427.493 95.9375 427.135 96.6729 426.42 97.2881C425.705 97.9033 424.648 98.2109 423.247 98.2109C421.976 98.2109 420.968 97.9531 420.224 97.4375C419.486 96.9219 419.002 96.2217 418.774 95.3369Z" fill="white"/>
<path d="M404 133.253C434.928 133.253 460 108.515 460 77.9994C460 47.4839 434.928 22.7461 404 22.7461C373.072 22.7461 348 47.4839 348 77.9994C348 108.515 373.072 133.253 404 133.253Z" stroke="white" stroke-width="3" stroke-dasharray="10 5"/>
</svg>
