<svg width="494" height="172" viewBox="0 0 494 172" fill="none" xmlns="http://www.w3.org/2000/svg">
<path d="M0 0H494V129L410 172L283.5 95L0 129V0Z" fill="#BD271A"/>
<path d="M395.411 75H392.118V62.5898C390.915 63.7148 389.497 64.5469 387.865 65.0859V62.0977C388.724 61.8164 389.658 61.2852 390.665 60.5039C391.673 59.7148 392.365 58.7969 392.74 57.75H395.411V75ZM406.802 75V71.543H399.771V68.6602L407.224 57.75H409.99V68.6484H412.122V71.543H409.99V75H406.802ZM406.802 68.6484V62.7773L402.853 68.6484H406.802ZM418.181 72.5273V68.0625H413.681V64.9805H418.181V60.5156H421.181V64.9805H425.693V68.0625H421.181V72.5273H418.181ZM386.989 98V92.5771L382.269 85.1152H385.319L388.351 90.2129L391.322 85.1152H394.319L389.581 92.5947V98H386.989ZM399.996 95.0293L402.457 95.4424C402.141 96.3447 401.64 97.0332 400.954 97.5078C400.275 97.9766 399.422 98.2109 398.397 98.2109C396.774 98.2109 395.573 97.6807 394.793 96.6201C394.178 95.7705 393.87 94.6982 393.87 93.4033C393.87 91.8564 394.275 90.6465 395.083 89.7734C395.892 88.8945 396.914 88.4551 398.151 88.4551C399.539 88.4551 400.635 88.915 401.438 89.835C402.241 90.749 402.624 92.1523 402.589 94.0449H396.402C396.419 94.7773 396.618 95.3486 396.999 95.7588C397.38 96.1631 397.855 96.3652 398.423 96.3652C398.81 96.3652 399.135 96.2598 399.399 96.0488C399.662 95.8379 399.862 95.498 399.996 95.0293ZM400.137 92.5332C400.119 91.8184 399.935 91.2764 399.583 90.9072C399.232 90.5322 398.804 90.3447 398.3 90.3447C397.761 90.3447 397.316 90.541 396.964 90.9336C396.613 91.3262 396.44 91.8594 396.446 92.5332H400.137ZM406.456 91.5137L404.215 91.1094C404.467 90.207 404.901 89.5391 405.516 89.1055C406.131 88.6719 407.045 88.4551 408.258 88.4551C409.36 88.4551 410.18 88.5869 410.719 88.8506C411.258 89.1084 411.636 89.4395 411.853 89.8438C412.076 90.2422 412.187 90.9775 412.187 92.0498L412.16 94.9326C412.16 95.7529 412.199 96.3594 412.275 96.752C412.357 97.1387 412.506 97.5547 412.723 98H410.28C410.215 97.8359 410.136 97.5928 410.042 97.2705C410.001 97.124 409.972 97.0273 409.954 96.9805C409.533 97.3906 409.081 97.6982 408.601 97.9033C408.12 98.1084 407.608 98.2109 407.063 98.2109C406.102 98.2109 405.343 97.9502 404.786 97.4287C404.236 96.9072 403.96 96.248 403.96 95.4512C403.96 94.9238 404.086 94.4551 404.338 94.0449C404.59 93.6289 404.942 93.3125 405.393 93.0957C405.85 92.873 406.506 92.6797 407.362 92.5156C408.516 92.2988 409.316 92.0967 409.761 91.9092V91.6631C409.761 91.1885 409.644 90.8516 409.41 90.6523C409.175 90.4473 408.733 90.3447 408.082 90.3447C407.643 90.3447 407.3 90.4326 407.054 90.6084C406.808 90.7783 406.609 91.0801 406.456 91.5137ZM409.761 93.5176C409.445 93.623 408.944 93.749 408.258 93.8955C407.573 94.042 407.124 94.1855 406.913 94.3262C406.591 94.5547 406.43 94.8447 406.43 95.1963C406.43 95.542 406.559 95.8408 406.817 96.0928C407.075 96.3447 407.403 96.4707 407.801 96.4707C408.246 96.4707 408.671 96.3242 409.076 96.0312C409.374 95.8086 409.571 95.5361 409.664 95.2139C409.729 95.0029 409.761 94.6016 409.761 94.0098V93.5176ZM416.994 98H414.525V88.666H416.819V89.9932C417.211 89.3662 417.563 88.9531 417.873 88.7539C418.19 88.5547 418.547 88.4551 418.946 88.4551C419.508 88.4551 420.05 88.6104 420.572 88.9209L419.807 91.0742C419.391 90.8047 419.004 90.6699 418.647 90.6699C418.301 90.6699 418.008 90.7666 417.768 90.96C417.528 91.1475 417.337 91.4902 417.197 91.9883C417.062 92.4863 416.994 93.5293 416.994 95.1172V98ZM420.774 95.3369L423.252 94.959C423.358 95.4395 423.572 95.8057 423.894 96.0576C424.216 96.3037 424.667 96.4268 425.247 96.4268C425.886 96.4268 426.367 96.3096 426.689 96.0752C426.906 95.9111 427.014 95.6914 427.014 95.416C427.014 95.2285 426.955 95.0732 426.838 94.9502C426.715 94.833 426.44 94.7246 426.012 94.625C424.02 94.1855 422.757 93.7842 422.224 93.4209C421.486 92.917 421.117 92.2168 421.117 91.3203C421.117 90.5117 421.436 89.832 422.075 89.2812C422.713 88.7305 423.703 88.4551 425.045 88.4551C426.323 88.4551 427.272 88.6631 427.893 89.0791C428.514 89.4951 428.942 90.1104 429.176 90.9248L426.847 91.3555C426.747 90.9922 426.557 90.7139 426.276 90.5205C426 90.3271 425.605 90.2305 425.089 90.2305C424.439 90.2305 423.973 90.3213 423.692 90.5029C423.504 90.6318 423.41 90.7988 423.41 91.0039C423.41 91.1797 423.493 91.3291 423.657 91.4521C423.879 91.6162 424.647 91.8477 425.959 92.1465C427.278 92.4453 428.198 92.8115 428.719 93.2451C429.235 93.6846 429.493 94.2969 429.493 95.082C429.493 95.9375 429.135 96.6729 428.42 97.2881C427.705 97.9033 426.648 98.2109 425.247 98.2109C423.976 98.2109 422.968 97.9531 422.224 97.4375C421.486 96.9219 421.002 96.2217 420.774 95.3369Z" fill="white"/>
<path d="M404 133.253C434.928 133.253 460 108.515 460 77.9994C460 47.4839 434.928 22.7461 404 22.7461C373.072 22.7461 348 47.4839 348 77.9994C348 108.515 373.072 133.253 404 133.253Z" stroke="white" stroke-width="3" stroke-dasharray="10 5"/>
</svg>
