<svg width="494" height="172" viewBox="0 0 494 172" fill="none" xmlns="http://www.w3.org/2000/svg">
<path d="M0 0H494V129L410 172L283.5 95L0 129V0Z" fill="#BD271A"/>
<path d="M413 122.64C441.167 122.64 464 100.111 464 72.32C464 44.529 441.167 22 413 22C384.833 22 362 44.529 362 72.32C362 100.111 384.833 122.64 413 122.64Z" stroke="white" stroke-width="3" stroke-dasharray="10 5"/>
<path d="M434.314 44H392.686C391.202 44 390 45.2009 390 46.6824V98.3176C390 99.7991 391.202 101 392.686 101H434.314C435.798 101 437 99.7991 437 98.3176V46.6824C437 45.2009 435.798 44 434.314 44Z" stroke="white" stroke-width="4"/>
<path d="M397.992 55.4902H428.032" stroke="white" stroke-width="3"/>
<path d="M397.992 65.2109H430.683" stroke="white" stroke-width="3"/>
<path d="M397.992 74.9277H424.498" stroke="white" stroke-width="3"/>
<path d="M397.992 85.5312H428.032" stroke="white" stroke-width="3"/>
</svg>
