<svg width="857" height="796" viewBox="0 0 857 796" fill="none" xmlns="http://www.w3.org/2000/svg">
<path d="M0 64C0 28.6538 28.6538 0 64 0H445.948H793C828.346 0 857 28.6538 857 64V294.096V518.741C857 554.088 828.346 582.741 793 582.741H394.307C376.124 582.741 358.8 590.476 346.66 604.013L201.176 766.243C195.123 773.504 183.419 767.573 185.695 758.398L217.25 631.17C223.356 606.552 204.729 582.741 179.366 582.741H64.4256C29.1264 582.741 0.492116 554.161 0.425738 518.862L0 292.459V64Z" fill="#BD0A0A"/>
<g filter="url(#filter0_i_3526_773)">
<path d="M741.999 423.822C741.999 440.188 728.732 453.454 712.367 453.454C696.001 453.454 682.734 440.188 682.734 423.822C682.734 407.456 696.001 394.189 712.367 394.189C728.732 394.189 741.999 407.456 741.999 423.822Z" fill="white"/>
</g>
<g filter="url(#filter1_i_3526_773)">
<path d="M131.664 124.457C131.664 123.352 132.559 122.457 133.664 122.457H202.999C204.104 122.457 204.999 123.352 204.999 124.457V392.845C204.999 393.95 205.895 394.845 206.999 394.845H360.146C361.251 394.845 362.146 395.741 362.146 396.845V455.704C362.146 456.808 361.251 457.704 360.146 457.704H133.664C132.559 457.704 131.664 456.808 131.664 455.704V124.457Z" fill="white"/>
</g>
<g filter="url(#filter2_i_3526_773)">
<path d="M393.898 121.902C393.898 120.798 394.794 119.902 395.898 119.902H673.538C674.643 119.902 675.538 120.798 675.538 121.902V180.489C675.538 181.594 674.643 182.489 673.538 182.489H573.238C572.129 182.489 571.232 183.391 571.238 184.499L572.621 451.687C572.627 452.796 571.73 453.698 570.621 453.698H500.21C499.105 453.698 498.21 452.802 498.21 451.698V184.489C498.21 183.384 497.314 182.489 496.21 182.489H395.898C394.794 182.489 393.898 181.594 393.898 180.489V121.902Z" fill="white"/>
</g>
<defs>
<filter id="filter0_i_3526_773" x="682.734" y="394.189" width="60.2656" height="60.2656" filterUnits="userSpaceOnUse" color-interpolation-filters="sRGB">
<feFlood flood-opacity="0" result="BackgroundImageFix"/>
<feBlend mode="normal" in="SourceGraphic" in2="BackgroundImageFix" result="shape"/>
<feColorMatrix in="SourceAlpha" type="matrix" values="0 0 0 0 0 0 0 0 0 0 0 0 0 0 0 0 0 0 127 0" result="hardAlpha"/>
<feOffset dx="2" dy="2"/>
<feGaussianBlur stdDeviation="0.5"/>
<feComposite in2="hardAlpha" operator="arithmetic" k2="-1" k3="1"/>
<feColorMatrix type="matrix" values="0 0 0 0 0 0 0 0 0 0 0 0 0 0 0 0 0 0 0.75 0"/>
<feBlend mode="normal" in2="shape" result="effect1_innerShadow_3526_773"/>
</filter>
<filter id="filter1_i_3526_773" x="131.664" y="122.457" width="231.484" height="336.246" filterUnits="userSpaceOnUse" color-interpolation-filters="sRGB">
<feFlood flood-opacity="0" result="BackgroundImageFix"/>
<feBlend mode="normal" in="SourceGraphic" in2="BackgroundImageFix" result="shape"/>
<feColorMatrix in="SourceAlpha" type="matrix" values="0 0 0 0 0 0 0 0 0 0 0 0 0 0 0 0 0 0 127 0" result="hardAlpha"/>
<feOffset dx="2" dy="2"/>
<feGaussianBlur stdDeviation="0.5"/>
<feComposite in2="hardAlpha" operator="arithmetic" k2="-1" k3="1"/>
<feColorMatrix type="matrix" values="0 0 0 0 0 0 0 0 0 0 0 0 0 0 0 0 0 0 0.75 0"/>
<feBlend mode="normal" in2="shape" result="effect1_innerShadow_3526_773"/>
</filter>
<filter id="filter2_i_3526_773" x="393.898" y="119.902" width="282.641" height="334.795" filterUnits="userSpaceOnUse" color-interpolation-filters="sRGB">
<feFlood flood-opacity="0" result="BackgroundImageFix"/>
<feBlend mode="normal" in="SourceGraphic" in2="BackgroundImageFix" result="shape"/>
<feColorMatrix in="SourceAlpha" type="matrix" values="0 0 0 0 0 0 0 0 0 0 0 0 0 0 0 0 0 0 127 0" result="hardAlpha"/>
<feOffset dx="2" dy="2"/>
<feGaussianBlur stdDeviation="0.5"/>
<feComposite in2="hardAlpha" operator="arithmetic" k2="-1" k3="1"/>
<feColorMatrix type="matrix" values="0 0 0 0 0 0 0 0 0 0 0 0 0 0 0 0 0 0 0.75 0"/>
<feBlend mode="normal" in2="shape" result="effect1_innerShadow_3526_773"/>
</filter>
</defs>
</svg>
