<svg width="3027" height="896" viewBox="0 0 3027 896" fill="none" xmlns="http://www.w3.org/2000/svg">
<g filter="url(#filter0_d_3529_904)">
<path d="M713.164 205.354V0H750.224V174.17H840.328V205.354H713.164Z" fill="#0B1A40"/>
<path d="M938.823 208.362C923.44 208.362 910.154 205.154 898.966 198.736C887.844 192.252 879.287 183.094 873.293 171.262C867.299 159.363 864.303 145.359 864.303 129.249C864.303 113.406 867.299 99.5019 873.293 87.5363C879.353 75.5038 887.811 66.1452 898.666 59.4605C909.521 52.7089 922.274 49.3332 936.925 49.3332C946.382 49.3332 955.306 50.8706 963.697 53.9456C972.154 56.9537 979.613 61.633 986.073 67.9835C992.599 74.334 997.727 82.4225 1001.46 92.249C1005.19 102.009 1007.05 113.64 1007.05 127.143V138.273H881.285V113.807H972.387C972.321 106.855 970.822 100.672 967.892 95.2571C964.962 89.7756 960.866 85.464 955.605 82.3222C950.411 79.1804 944.351 77.6095 937.425 77.6095C930.032 77.6095 923.539 79.4143 917.945 83.0241C912.351 86.567 907.989 91.2463 904.859 97.062C901.796 102.811 900.231 109.128 900.164 116.013V137.371C900.164 146.328 901.796 154.016 905.059 160.433C908.322 166.783 912.884 171.663 918.745 175.073C924.605 178.415 931.464 180.086 939.323 180.086C944.584 180.086 949.345 179.351 953.607 177.88C957.869 176.343 961.565 174.103 964.695 171.162C967.825 168.221 970.19 164.578 971.788 160.232L1005.55 164.043C1003.42 173 999.358 180.821 993.365 187.506C987.438 194.124 979.846 199.271 970.589 202.948C961.332 206.557 950.744 208.362 938.823 208.362Z" fill="#0B1A40"/>
<path d="M1114.26 51.3386V79.4143H1026.05V51.3386H1114.26ZM1047.83 14.439H1083.99V159.029C1083.99 163.909 1084.73 167.653 1086.19 170.26C1087.72 172.8 1089.72 174.538 1092.18 175.474C1094.65 176.409 1097.38 176.877 1100.38 176.877C1102.64 176.877 1104.7 176.71 1106.57 176.376C1108.5 176.042 1109.97 175.741 1110.96 175.474L1117.06 203.85C1115.13 204.519 1112.36 205.254 1108.77 206.056C1105.24 206.858 1100.91 207.326 1095.78 207.46C1086.72 207.727 1078.57 206.357 1071.31 203.349C1064.05 200.274 1058.29 195.528 1054.03 189.11C1049.83 182.693 1047.77 174.671 1047.83 165.045V14.439Z" fill="#0B1A40"/>
<path d="M1182.31 0V20.4552C1182.31 26.3378 1181.18 32.4543 1178.92 38.8047C1176.72 45.0884 1173.69 51.1046 1169.83 56.8535C1165.96 62.5355 1161.57 67.4153 1156.64 71.493L1139.86 60.5635C1143.52 55.0151 1146.72 49.0323 1149.45 42.615C1152.18 36.1309 1153.54 28.8111 1153.54 20.6558V0H1182.31Z" fill="#0B1A40"/>
<path d="M1313.02 92.0484L1280.06 95.6582C1279.13 92.3158 1277.49 89.174 1275.16 86.2327C1272.9 83.2915 1269.84 80.9184 1265.97 79.1135C1262.11 77.3087 1257.38 76.4062 1251.79 76.4062C1244.26 76.4062 1237.94 78.044 1232.81 81.3195C1227.75 84.595 1225.25 88.8398 1225.32 94.0539C1225.25 98.5326 1226.88 102.176 1230.21 104.983C1233.61 107.791 1239.2 110.097 1246.99 111.902L1273.17 117.517C1287.68 120.659 1298.47 125.639 1305.53 132.458C1312.66 139.276 1316.25 148.2 1316.32 159.23C1316.25 168.923 1313.42 177.479 1307.83 184.899C1302.3 192.252 1294.61 198.001 1284.75 202.146C1274.9 206.29 1263.58 208.362 1250.79 208.362C1232.01 208.362 1216.89 204.418 1205.44 196.53C1193.98 188.576 1187.16 177.512 1184.96 163.341L1220.22 159.932C1221.82 166.884 1225.22 172.131 1230.41 175.674C1235.61 179.217 1242.37 180.988 1250.69 180.988C1259.28 180.988 1266.17 179.217 1271.37 175.674C1276.63 172.131 1279.26 167.753 1279.26 162.539C1279.26 158.127 1277.56 154.484 1274.17 151.609C1270.84 148.735 1265.64 146.529 1258.58 144.991L1232.41 139.476C1217.69 136.401 1206.8 131.221 1199.74 123.934C1192.69 116.581 1189.19 107.29 1189.26 96.0592C1189.19 86.567 1191.75 78.3448 1196.95 71.3927C1202.21 64.3737 1209.5 58.9591 1218.82 55.1488C1228.21 51.2717 1239.04 49.3332 1251.29 49.3332C1269.27 49.3332 1283.42 53.1769 1293.74 60.8643C1304.13 68.5517 1310.56 78.9464 1313.02 92.0484Z" fill="#0B1A40"/>
<path d="M1408.52 31.1842V0H1571.75V31.1842H1508.51V205.354H1471.75V31.1842H1408.52Z" fill="#0B1A40"/>
<path d="M1624.89 208.463C1615.17 208.463 1606.41 206.725 1598.62 203.249C1590.89 199.706 1584.77 194.492 1580.24 187.606C1575.78 180.721 1573.55 172.232 1573.55 162.138C1573.55 153.447 1575.14 146.261 1578.34 140.579C1581.54 134.897 1585.9 130.352 1591.43 126.943C1596.95 123.533 1603.18 120.96 1610.11 119.222C1617.1 117.417 1624.32 116.113 1631.78 115.311C1640.77 114.375 1648.07 113.54 1653.66 112.804C1659.25 112.002 1663.32 110.799 1665.85 109.195C1668.44 107.524 1669.74 104.95 1669.74 101.474V100.872C1669.74 93.3185 1667.51 87.4694 1663.05 83.3249C1658.59 79.1804 1652.16 77.1081 1643.77 77.1081C1634.91 77.1081 1627.89 79.0467 1622.69 82.9238C1617.56 86.8009 1614.1 91.38 1612.3 96.6609L1578.54 91.8479C1581.2 82.4893 1585.6 74.6682 1591.73 68.3846C1597.85 62.0341 1605.34 57.2879 1614.2 54.1461C1623.06 50.9375 1632.85 49.3332 1643.57 49.3332C1650.96 49.3332 1658.32 50.2022 1665.65 51.9402C1672.97 53.6782 1679.67 56.5526 1685.73 60.5635C1691.79 64.5074 1696.65 69.8886 1700.31 76.707C1704.04 83.5254 1705.9 92.0484 1705.9 102.276V205.354H1671.14V184.197H1669.94C1667.74 188.475 1664.65 192.486 1660.65 196.23C1656.72 199.906 1651.76 202.881 1645.77 205.154C1639.84 207.36 1632.88 208.463 1624.89 208.463ZM1634.28 181.791C1641.54 181.791 1647.83 180.353 1653.16 177.479C1658.49 174.538 1662.58 170.661 1665.45 165.848C1668.38 161.035 1669.84 155.787 1669.84 150.105V131.956C1668.71 132.892 1666.78 133.761 1664.05 134.563C1661.38 135.365 1658.39 136.067 1655.06 136.669C1651.73 137.27 1648.43 137.805 1645.17 138.273C1641.91 138.741 1639.08 139.142 1636.68 139.476C1631.28 140.212 1626.46 141.415 1622.19 143.086C1617.93 144.757 1614.57 147.097 1612.1 150.105C1609.64 153.046 1608.41 156.857 1608.41 161.536C1608.41 168.221 1610.84 173.268 1615.7 176.677C1620.56 180.086 1626.76 181.791 1634.28 181.791Z" fill="#0B1A40"/>
<path d="M1778.43 0V205.354H1742.27V0H1778.43Z" fill="#0B1A40"/>
<path d="M1848.58 157.024L1848.48 113.206H1854.27L1909.41 51.3386H1951.67L1883.84 127.143H1876.35L1848.58 157.024ZM1815.61 205.354V0H1851.77V205.354H1815.61ZM1911.91 205.354L1861.96 135.265L1886.34 109.696L1955.16 205.354H1911.91Z" fill="#0B1A40"/>
</g>
<g filter="url(#filter1_i_3529_904)">
<path d="M888.507 507.831C886.447 490.6 877.952 477.252 863.021 467.787C848.09 458.201 829.297 453.408 806.643 453.408C790.425 453.408 776.395 455.835 764.553 460.689C752.711 465.421 743.508 471.974 736.943 480.346C730.507 488.598 727.289 498.002 727.289 508.559C727.289 517.417 729.477 525.062 733.854 531.493C738.359 537.924 744.215 543.324 751.424 547.693C758.76 551.94 766.612 555.519 774.979 558.432C783.345 561.223 791.39 563.528 799.113 565.348L837.728 574.813C850.342 577.725 863.278 581.669 876.536 586.644C889.794 591.619 902.086 598.172 913.413 606.302C924.74 614.432 933.879 624.504 940.83 636.517C947.909 648.53 951.449 662.909 951.449 679.655C951.449 700.769 945.657 719.517 934.072 735.898C922.616 752.28 905.948 765.203 884.066 774.668C862.313 784.133 835.99 788.865 805.098 788.865C775.494 788.865 749.879 784.436 728.255 775.578C706.63 766.72 689.704 754.161 677.476 737.9C665.248 721.519 658.49 702.104 657.203 679.655H717.056C718.215 693.124 722.849 704.349 730.958 713.328C739.195 722.186 749.686 728.8 762.429 733.168C775.3 737.415 789.395 739.539 804.712 739.539C821.574 739.539 836.569 737.051 849.699 732.076C862.956 726.979 873.382 719.941 880.977 710.962C888.571 701.861 892.368 691.243 892.368 679.109C892.368 668.067 889.021 659.026 882.328 651.988C875.764 644.95 866.818 639.126 855.491 634.515C844.292 629.904 831.614 625.839 817.455 622.32L770.731 610.307C739.067 602.176 713.967 590.224 695.432 574.449C677.025 558.674 667.822 537.803 667.822 511.835C667.822 490.357 674.001 471.61 686.357 455.592C698.714 439.575 715.447 427.137 736.557 418.279C757.666 409.299 781.479 404.809 807.994 404.809C834.767 404.809 858.387 409.238 878.853 418.097C899.447 426.955 915.666 439.15 927.508 454.682C939.35 470.093 945.528 487.809 946.043 507.831H888.507Z" fill="#0B1A40"/>
<path d="M1143.03 788.319C1115.22 788.319 1090.96 782.313 1070.24 770.299C1049.51 758.286 1033.43 741.48 1021.97 719.881C1010.51 698.281 1004.79 673.042 1004.79 644.162C1004.79 615.16 1010.51 589.799 1021.97 568.079C1033.43 546.358 1049.51 529.491 1070.24 517.478C1090.96 505.465 1115.22 499.458 1143.03 499.458C1170.83 499.458 1195.09 505.465 1215.82 517.478C1236.54 529.491 1252.63 546.358 1264.09 568.079C1275.54 589.799 1281.27 615.16 1281.27 644.162C1281.27 673.042 1275.54 698.281 1264.09 719.881C1252.63 741.48 1236.54 758.286 1215.82 770.299C1195.09 782.313 1170.83 788.319 1143.03 788.319ZM1143.22 742.633C1161.24 742.633 1176.17 738.143 1188.01 729.164C1199.86 720.184 1208.61 708.232 1214.27 693.306C1220.06 678.381 1222.96 661.939 1222.96 643.98C1222.96 626.142 1220.06 609.76 1214.27 594.835C1208.61 579.788 1199.86 567.715 1188.01 558.614C1176.17 549.513 1161.24 544.962 1143.22 544.962C1125.07 544.962 1110.01 549.513 1098.04 558.614C1086.2 567.715 1077.38 579.788 1071.59 594.835C1065.93 609.76 1063.09 626.142 1063.09 643.98C1063.09 661.939 1065.93 678.381 1071.59 693.306C1077.38 708.232 1086.2 720.184 1098.04 729.164C1110.01 738.143 1125.07 742.633 1143.22 742.633Z" fill="#0B1A40"/>
<path d="M1403.44 409.906V782.677H1345.71V409.906H1403.44Z" fill="#0B1A40"/>
<path d="M1668.96 666.732V503.099H1726.89V782.677H1670.12V734.26H1667.03C1660.21 749.185 1649.27 761.623 1634.21 771.574C1619.28 781.402 1600.68 786.317 1578.41 786.317C1559.36 786.317 1542.5 782.373 1527.83 774.486C1513.28 766.477 1501.82 754.646 1493.46 738.992C1485.22 723.339 1481.1 703.985 1481.1 680.929V503.099H1538.83V674.376C1538.83 693.428 1544.43 708.596 1555.63 719.881C1566.83 731.166 1581.37 736.808 1599.26 736.808C1610.07 736.808 1620.82 734.26 1631.51 729.164C1642.32 724.067 1651.26 716.362 1658.34 706.047C1665.55 695.733 1669.09 682.628 1668.96 666.732Z" fill="#0B1A40"/>
<path d="M1942.89 503.099V546.783H1780.9V503.099H1942.89ZM1824.34 436.116H1882.07V700.587C1882.07 711.144 1883.74 719.092 1887.09 724.431C1890.44 729.649 1894.75 733.229 1900.02 735.17C1905.43 736.99 1911.29 737.9 1917.59 737.9C1922.23 737.9 1926.28 737.597 1929.76 736.99C1933.23 736.384 1935.94 735.898 1937.87 735.534L1948.29 780.492C1944.95 781.706 1940.18 782.919 1934.01 784.133C1927.83 785.468 1920.1 786.196 1910.84 786.317C1895.65 786.56 1881.49 784.011 1868.36 778.672C1855.23 773.333 1844.61 765.082 1836.5 753.918C1828.39 742.754 1824.34 728.739 1824.34 711.872V436.116Z" fill="#0B1A40"/>
<path d="M2006.75 782.677V503.099H2064.48V782.677H2006.75ZM2035.9 459.961C2025.86 459.961 2017.24 456.806 2010.03 450.496C2002.95 444.064 1999.41 436.42 1999.41 427.561C1999.41 418.582 2002.95 410.937 2010.03 404.627C2017.24 398.196 2025.86 394.98 2035.9 394.98C2045.94 394.98 2054.5 398.196 2061.58 404.627C2068.79 410.937 2072.39 418.582 2072.39 427.561C2072.39 436.42 2068.79 444.064 2061.58 450.496C2054.5 456.806 2045.94 459.961 2035.9 459.961Z" fill="#0B1A40"/>
<path d="M2267.06 788.319C2239.26 788.319 2214.99 782.313 2194.27 770.299C2173.55 758.286 2157.46 741.48 2146 719.881C2134.55 698.281 2128.82 673.042 2128.82 644.162C2128.82 615.16 2134.55 589.799 2146 568.079C2157.46 546.358 2173.55 529.491 2194.27 517.478C2214.99 505.465 2239.26 499.458 2267.06 499.458C2294.86 499.458 2319.13 505.465 2339.85 517.478C2360.57 529.491 2376.66 546.358 2388.12 568.079C2399.57 589.799 2405.3 615.16 2405.3 644.162C2405.3 673.042 2399.57 698.281 2388.12 719.881C2376.66 741.48 2360.57 758.286 2339.85 770.299C2319.13 782.313 2294.86 788.319 2267.06 788.319ZM2267.25 742.633C2285.27 742.633 2300.2 738.143 2312.05 729.164C2323.89 720.184 2332.64 708.232 2338.3 693.306C2344.1 678.381 2346.99 661.939 2346.99 643.98C2346.99 626.142 2344.1 609.76 2338.3 594.835C2332.64 579.788 2323.89 567.715 2312.05 558.614C2300.2 549.513 2285.27 544.962 2267.25 544.962C2249.1 544.962 2234.04 549.513 2222.07 558.614C2210.23 567.715 2201.41 579.788 2195.62 594.835C2189.96 609.76 2187.13 626.142 2187.13 643.98C2187.13 661.939 2189.96 678.381 2195.62 693.306C2201.41 708.232 2210.23 720.184 2222.07 729.164C2234.04 738.143 2249.1 742.633 2267.25 742.633Z" fill="#0B1A40"/>
<path d="M2527.47 616.677V782.677H2469.74V503.099H2525.15V548.603H2528.82C2535.64 533.799 2546.33 521.907 2560.87 512.927C2575.54 503.948 2594.02 499.458 2616.28 499.458C2636.49 499.458 2654.19 503.463 2669.38 511.471C2684.57 519.359 2696.35 531.129 2704.71 546.783C2713.08 562.436 2717.26 581.791 2717.26 604.846V782.677H2659.53V611.399C2659.53 591.134 2653.93 575.299 2642.73 563.892C2631.54 552.364 2616.15 546.601 2596.59 546.601C2583.2 546.601 2571.3 549.331 2560.87 554.791C2550.57 560.252 2542.4 568.261 2536.35 578.818C2530.43 589.253 2527.47 601.873 2527.47 616.677Z" fill="#0B1A40"/>
<path d="M3016.91 571.355L2964.59 580.092C2962.4 573.782 2958.93 567.775 2954.16 562.072C2949.53 556.369 2943.22 551.697 2935.24 548.057C2927.26 544.416 2917.29 542.596 2905.32 542.596C2888.97 542.596 2875.33 546.055 2864.38 552.971C2853.44 559.766 2847.97 568.564 2847.97 579.364C2847.97 588.707 2851.64 596.231 2858.98 601.934C2866.32 607.637 2878.16 612.309 2894.5 615.949L2941.61 626.142C2968.9 632.088 2989.24 641.249 3002.63 653.627C3016.01 666.004 3022.71 682.082 3022.71 701.861C3022.71 718.607 3017.56 733.532 3007.26 746.637C2997.09 759.621 2982.87 769.814 2964.59 777.216C2946.44 784.618 2925.4 788.319 2901.45 788.319C2868.25 788.319 2841.15 781.645 2820.17 768.297C2799.19 754.828 2786.32 735.716 2781.56 710.962L2837.35 702.953C2840.83 716.665 2847.97 727.04 2858.79 734.078C2869.6 740.995 2883.69 744.453 2901.07 744.453C2919.99 744.453 2935.11 740.752 2946.44 733.35C2957.77 725.827 2963.43 716.665 2963.43 705.865C2963.43 697.129 2959.96 689.787 2953.01 683.841C2946.18 677.895 2935.69 673.406 2921.53 670.372L2871.34 659.997C2843.66 654.051 2823.2 644.586 2809.94 631.602C2796.81 618.619 2790.24 602.176 2790.24 582.276C2790.24 565.773 2795.14 551.333 2804.92 538.956C2814.7 526.579 2828.22 516.932 2845.46 510.015C2862.71 502.977 2882.47 499.458 2904.74 499.458C2936.79 499.458 2962.02 506.011 2980.42 519.116C2998.83 532.1 3010.99 549.513 3016.91 571.355Z" fill="#0B1A40"/>
</g>
<g filter="url(#filter2_d_3529_904)">
<path d="M657.203 892L3026 892" stroke="#BD0A0A" stroke-width="5"/>
</g>
<path d="M114.026 726.933C114.289 724.277 116.357 722.255 118.814 722.255L244.248 722.257C248.521 722.257 250.623 727.88 247.574 731.153L107.251 881.757C104.044 885.2 98.6566 882.399 99.1372 877.539L114.026 726.933Z" fill="#BD0A0A"/>
<path d="M0 422.66C0 411.614 8.9543 402.66 20 402.66H500.202C511.247 402.66 520.202 411.614 520.202 422.66V757.725C520.202 768.77 511.247 777.725 500.202 777.725H258.414H20C8.95429 777.725 0 768.77 0 757.725V422.66Z" fill="#BD0A0A"/>
<g filter="url(#filter3_i_3529_904)">
<path d="M447.979 668.795C447.979 678.409 440.183 686.203 430.567 686.203C420.951 686.203 413.156 678.409 413.156 668.795C413.156 659.181 420.951 651.387 430.567 651.387C440.183 651.387 447.979 659.181 447.979 668.795Z" fill="white"/>
</g>
<g filter="url(#filter4_i_3529_904)">
<path d="M97.4375 491.938C97.4375 490.833 98.3329 489.938 99.4375 489.938H138.527C139.632 489.938 140.527 490.833 140.527 491.938V647.959C140.527 649.064 141.422 649.959 142.527 649.959H230.862C231.966 649.959 232.862 650.854 232.862 651.959V684.887C232.862 685.992 231.966 686.887 230.862 686.887H99.4375C98.3329 686.887 97.4375 685.992 97.4375 684.887V491.938Z" fill="white"/>
</g>
<g filter="url(#filter5_i_3529_904)">
<path d="M247.266 491.937C247.266 490.833 248.161 489.938 249.266 489.938H410.748C411.853 489.938 412.748 490.833 412.748 491.938V524.706C412.748 525.81 411.853 526.706 410.748 526.706H353.469C352.36 526.706 351.463 527.607 351.469 528.716L352.273 684.024C352.279 685.133 351.382 686.034 350.273 686.034H310.556C309.451 686.034 308.556 685.139 308.556 684.034V528.706C308.556 527.601 307.66 526.706 306.556 526.706H249.266C248.161 526.706 247.266 525.81 247.266 524.706V491.937Z" fill="white"/>
</g>
<defs>
<filter id="filter0_d_3529_904" x="713.164" y="0" width="1245" height="211.461" filterUnits="userSpaceOnUse" color-interpolation-filters="sRGB">
<feFlood flood-opacity="0" result="BackgroundImageFix"/>
<feColorMatrix in="SourceAlpha" type="matrix" values="0 0 0 0 0 0 0 0 0 0 0 0 0 0 0 0 0 0 127 0" result="hardAlpha"/>
<feOffset dx="2" dy="2"/>
<feGaussianBlur stdDeviation="0.5"/>
<feComposite in2="hardAlpha" operator="out"/>
<feColorMatrix type="matrix" values="0 0 0 0 0.101961 0 0 0 0 0.0823529 0 0 0 0 0.247059 0 0 0 0.19 0"/>
<feBlend mode="normal" in2="BackgroundImageFix" result="effect1_dropShadow_3529_904"/>
<feBlend mode="normal" in="SourceGraphic" in2="effect1_dropShadow_3529_904" result="shape"/>
</filter>
<filter id="filter1_i_3529_904" x="657.203" y="394.98" width="2366.5" height="394.883" filterUnits="userSpaceOnUse" color-interpolation-filters="sRGB">
<feFlood flood-opacity="0" result="BackgroundImageFix"/>
<feBlend mode="normal" in="SourceGraphic" in2="BackgroundImageFix" result="shape"/>
<feColorMatrix in="SourceAlpha" type="matrix" values="0 0 0 0 0 0 0 0 0 0 0 0 0 0 0 0 0 0 127 0" result="hardAlpha"/>
<feOffset dx="2" dy="2"/>
<feGaussianBlur stdDeviation="0.5"/>
<feComposite in2="hardAlpha" operator="arithmetic" k2="-1" k3="1"/>
<feColorMatrix type="matrix" values="0 0 0 0 0 0 0 0 0 0 0 0 0 0 0 0 0 0 0.75 0"/>
<feBlend mode="normal" in2="shape" result="effect1_innerShadow_3529_904"/>
</filter>
<filter id="filter2_d_3529_904" x="657.203" y="889.5" width="2369.4" height="5.6" filterUnits="userSpaceOnUse" color-interpolation-filters="sRGB">
<feFlood flood-opacity="0" result="BackgroundImageFix"/>
<feColorMatrix in="SourceAlpha" type="matrix" values="0 0 0 0 0 0 0 0 0 0 0 0 0 0 0 0 0 0 127 0" result="hardAlpha"/>
<feOffset dx="0.5" dy="0.5"/>
<feGaussianBlur stdDeviation="0.05"/>
<feComposite in2="hardAlpha" operator="out"/>
<feColorMatrix type="matrix" values="0 0 0 0 0 0 0 0 0 0 0 0 0 0 0 0 0 0 0.25 0"/>
<feBlend mode="normal" in2="BackgroundImageFix" result="effect1_dropShadow_3529_904"/>
<feBlend mode="normal" in="SourceGraphic" in2="effect1_dropShadow_3529_904" result="shape"/>
</filter>
<filter id="filter3_i_3529_904" x="413.156" y="651.387" width="35.8203" height="35.8164" filterUnits="userSpaceOnUse" color-interpolation-filters="sRGB">
<feFlood flood-opacity="0" result="BackgroundImageFix"/>
<feBlend mode="normal" in="SourceGraphic" in2="BackgroundImageFix" result="shape"/>
<feColorMatrix in="SourceAlpha" type="matrix" values="0 0 0 0 0 0 0 0 0 0 0 0 0 0 0 0 0 0 127 0" result="hardAlpha"/>
<feOffset dx="2" dy="2"/>
<feGaussianBlur stdDeviation="0.5"/>
<feComposite in2="hardAlpha" operator="arithmetic" k2="-1" k3="1"/>
<feColorMatrix type="matrix" values="0 0 0 0 0 0 0 0 0 0 0 0 0 0 0 0 0 0 0.75 0"/>
<feBlend mode="normal" in2="shape" result="effect1_innerShadow_3529_904"/>
</filter>
<filter id="filter4_i_3529_904" x="97.4375" y="489.938" width="136.422" height="197.949" filterUnits="userSpaceOnUse" color-interpolation-filters="sRGB">
<feFlood flood-opacity="0" result="BackgroundImageFix"/>
<feBlend mode="normal" in="SourceGraphic" in2="BackgroundImageFix" result="shape"/>
<feColorMatrix in="SourceAlpha" type="matrix" values="0 0 0 0 0 0 0 0 0 0 0 0 0 0 0 0 0 0 127 0" result="hardAlpha"/>
<feOffset dx="2" dy="2"/>
<feGaussianBlur stdDeviation="0.5"/>
<feComposite in2="hardAlpha" operator="arithmetic" k2="-1" k3="1"/>
<feColorMatrix type="matrix" values="0 0 0 0 0 0 0 0 0 0 0 0 0 0 0 0 0 0 0.75 0"/>
<feBlend mode="normal" in2="shape" result="effect1_innerShadow_3529_904"/>
</filter>
<filter id="filter5_i_3529_904" x="247.266" y="489.938" width="166.484" height="197.098" filterUnits="userSpaceOnUse" color-interpolation-filters="sRGB">
<feFlood flood-opacity="0" result="BackgroundImageFix"/>
<feBlend mode="normal" in="SourceGraphic" in2="BackgroundImageFix" result="shape"/>
<feColorMatrix in="SourceAlpha" type="matrix" values="0 0 0 0 0 0 0 0 0 0 0 0 0 0 0 0 0 0 127 0" result="hardAlpha"/>
<feOffset dx="2" dy="2"/>
<feGaussianBlur stdDeviation="0.5"/>
<feComposite in2="hardAlpha" operator="arithmetic" k2="-1" k3="1"/>
<feColorMatrix type="matrix" values="0 0 0 0 0 0 0 0 0 0 0 0 0 0 0 0 0 0 0.75 0"/>
<feBlend mode="normal" in2="shape" result="effect1_innerShadow_3529_904"/>
</filter>
</defs>
</svg>
