<svg width="3025" height="892" viewBox="0 0 3025 892" fill="none" xmlns="http://www.w3.org/2000/svg">
<g filter="url(#filter0_d_3529_801)">
<path d="M718.859 204.629V0H755.789V173.555H845.574V204.629H718.859Z" fill="white"/>
<path d="M943.721 207.626C928.392 207.626 915.153 204.429 904.005 198.034C892.922 191.573 884.395 182.447 878.423 170.657C872.45 158.8 869.464 144.845 869.464 128.792C869.464 113.005 872.45 99.1503 878.423 87.2269C884.462 75.237 892.889 65.9114 903.706 59.2504C914.523 52.5227 927.231 49.1588 941.83 49.1588C951.253 49.1588 960.146 50.6909 968.507 53.755C976.935 56.7525 984.367 61.4152 990.804 67.7432C997.307 74.0713 1002.42 82.1312 1006.13 91.923C1009.85 101.648 1011.71 113.238 1011.71 126.694V137.785H886.386V113.405H977.167C977.101 106.477 975.607 100.316 972.688 94.9205C969.768 89.4584 965.687 85.162 960.444 82.0313C955.268 78.9006 949.229 77.3352 942.328 77.3352C934.962 77.3352 928.492 79.1337 922.917 82.7307C917.343 86.2611 912.996 90.9238 909.878 96.719C906.825 102.447 905.266 108.742 905.199 115.603V136.885C905.199 145.811 906.825 153.471 910.077 159.866C913.328 166.194 917.874 171.057 923.714 174.454C929.553 177.784 936.389 179.45 944.219 179.45C949.461 179.45 954.206 178.717 958.453 177.252C962.7 175.719 966.383 173.488 969.502 170.557C972.621 167.626 974.977 163.996 976.57 159.666L1010.21 163.463C1008.09 172.389 1004.04 180.182 998.07 186.843C992.164 193.438 984.599 198.567 975.375 202.231C966.151 205.828 955.6 207.626 943.721 207.626Z" fill="white"/>
<path d="M1118.54 51.1571V79.1337H1030.65V51.1571H1118.54ZM1052.34 14.3879H1088.38V158.467C1088.38 163.33 1089.11 167.06 1090.57 169.658C1092.09 172.189 1094.09 173.921 1096.54 174.854C1099 175.786 1101.72 176.252 1104.7 176.252C1106.96 176.252 1109.02 176.086 1110.87 175.753C1112.8 175.42 1114.26 175.12 1115.25 174.854L1121.33 203.13C1119.4 203.796 1116.65 204.529 1113.06 205.328C1109.55 206.127 1105.23 206.594 1100.12 206.727C1091.1 206.993 1082.97 205.628 1075.74 202.63C1068.5 199.566 1062.76 194.837 1058.52 188.442C1054.34 182.047 1052.28 174.054 1052.34 164.462V14.3879Z" fill="white"/>
<path d="M1186.35 0V20.3829C1186.35 26.2447 1185.22 32.3396 1182.97 38.6676C1180.78 44.929 1177.76 50.924 1173.91 56.6525C1170.06 62.3145 1165.68 67.1771 1160.77 71.2403L1144.05 60.3494C1147.7 54.8207 1150.88 48.8591 1153.6 42.4644C1156.32 36.0032 1157.68 28.7093 1157.68 20.5828V0H1186.35Z" fill="white"/>
<path d="M1316.6 91.7232L1283.75 95.3201C1282.82 91.9896 1281.2 88.8589 1278.87 85.928C1276.62 82.9971 1273.57 80.6325 1269.72 78.834C1265.87 77.0355 1261.16 76.1362 1255.58 76.1362C1248.08 76.1362 1241.78 77.7682 1236.67 81.0321C1231.63 84.2961 1229.14 88.5258 1229.2 93.7215C1229.14 98.1844 1230.76 101.815 1234.08 104.612C1237.47 107.41 1243.04 109.708 1250.8 111.507L1276.88 117.102C1291.35 120.233 1302.1 125.195 1309.13 131.989C1316.24 138.784 1319.82 147.676 1319.88 158.667C1319.82 168.326 1317 176.852 1311.42 184.246C1305.92 191.573 1298.25 197.301 1288.43 201.431C1278.61 205.561 1267.33 207.626 1254.59 207.626C1235.87 207.626 1220.81 203.696 1209.39 195.836C1197.98 187.909 1191.18 176.885 1188.99 162.764L1224.13 159.366C1225.72 166.294 1229.1 171.523 1234.28 175.053C1239.46 178.584 1246.19 180.349 1254.49 180.349C1263.05 180.349 1269.92 178.584 1275.09 175.053C1280.33 171.523 1282.96 167.16 1282.96 161.964C1282.96 157.568 1281.26 153.938 1277.88 151.073C1274.56 148.209 1269.38 146.011 1262.35 144.479L1236.27 138.984C1221.61 135.919 1210.76 130.757 1203.72 123.497C1196.69 116.169 1193.2 106.91 1193.27 95.7198C1193.2 86.2611 1195.76 78.0679 1200.93 71.1404C1206.18 64.1463 1213.44 58.7508 1222.73 54.954C1232.09 51.0905 1242.87 49.1588 1255.08 49.1588C1273 49.1588 1287.1 52.9889 1297.39 60.6492C1307.74 68.3094 1314.14 78.6674 1316.6 91.7232Z" fill="white"/>
<path d="M1411.76 31.074V0H1574.41V31.074H1511.4V204.629H1474.77V31.074H1411.76Z" fill="white"/>
<path d="M1627.37 207.726C1617.68 207.726 1608.95 205.994 1601.19 202.53C1593.49 199 1587.38 193.804 1582.87 186.943C1578.42 180.082 1576.2 171.623 1576.2 161.565C1576.2 152.905 1577.79 145.745 1580.98 140.083C1584.16 134.421 1588.51 129.891 1594.02 126.494C1599.53 123.097 1605.73 120.532 1612.63 118.8C1619.6 117.002 1626.8 115.703 1634.23 114.904C1643.19 113.971 1650.46 113.139 1656.03 112.406C1661.61 111.607 1665.66 110.408 1668.18 108.809C1670.76 107.144 1672.06 104.579 1672.06 101.115V100.516C1672.06 92.9888 1669.84 87.1603 1665.39 83.0304C1660.94 78.9006 1654.54 76.8356 1646.18 76.8356C1637.35 76.8356 1630.35 78.7673 1625.18 82.6308C1620.07 86.4942 1616.61 91.0571 1614.82 96.3193L1581.18 91.5233C1583.83 82.1978 1588.21 74.4043 1594.32 68.1429C1600.42 61.8149 1607.89 57.0855 1616.71 53.9548C1625.54 50.7575 1635.3 49.1588 1645.98 49.1588C1653.35 49.1588 1660.68 50.0248 1667.98 51.7566C1675.28 53.4885 1681.95 56.3528 1687.99 60.3494C1694.02 64.2795 1698.87 69.6417 1702.52 76.436C1706.23 83.2303 1708.09 91.7232 1708.09 101.915V204.629H1673.45V183.546H1672.26C1670.07 187.809 1666.98 191.806 1663 195.536C1659.09 199.2 1654.14 202.164 1648.17 204.429C1642.26 206.627 1635.33 207.726 1627.37 207.726ZM1636.72 181.148C1643.96 181.148 1650.23 179.716 1655.54 176.852C1660.84 173.921 1664.93 170.058 1667.78 165.262C1670.7 160.466 1672.16 155.237 1672.16 149.575V131.49C1671.03 132.422 1669.11 133.288 1666.39 134.088C1663.73 134.887 1660.74 135.586 1657.43 136.186C1654.11 136.785 1650.82 137.318 1647.57 137.785C1644.32 138.251 1641.5 138.65 1639.11 138.984C1633.74 139.716 1628.92 140.915 1624.68 142.581C1620.43 144.246 1617.08 146.577 1614.62 149.575C1612.17 152.506 1610.94 156.302 1610.94 160.965C1610.94 167.626 1613.36 172.655 1618.21 176.053C1623.05 179.45 1629.22 181.148 1636.72 181.148Z" fill="white"/>
<path d="M1780.36 0V204.629H1744.33V0H1780.36Z" fill="white"/>
<path d="M1850.26 156.469L1850.16 112.805H1855.94L1910.88 51.1571H1952.99L1885.4 126.694H1877.93L1850.26 156.469ZM1817.41 204.629V0H1853.45V204.629H1817.41ZM1913.37 204.629L1863.6 134.787L1887.89 109.308L1956.47 204.629H1913.37Z" fill="white"/>
</g>
<g filter="url(#filter1_i_3529_801)">
<path d="M893.596 506.036C891.544 488.866 883.078 475.565 868.2 466.133C853.322 456.581 834.595 451.805 812.021 451.805C795.86 451.805 781.88 454.223 770.08 459.06C758.28 463.776 749.109 470.305 742.568 478.648C736.154 486.871 732.948 496.242 732.948 506.761C732.948 515.588 735.128 523.206 739.489 529.614C743.978 536.023 749.814 541.404 756.997 545.757C764.308 549.989 772.132 553.556 780.469 556.458C788.806 559.239 796.822 561.536 804.518 563.35L842.997 572.781C855.566 575.683 868.457 579.613 881.667 584.571C894.878 589.528 907.127 596.058 918.414 604.159C929.702 612.26 938.808 622.296 945.734 634.267C952.789 646.238 956.316 660.566 956.316 677.253C956.316 698.292 950.544 716.973 939 733.297C927.585 749.621 910.975 762.498 889.171 771.93C867.495 781.361 841.265 786.077 810.482 786.077C780.982 786.077 755.458 781.663 733.91 772.836C712.362 764.01 695.495 751.495 683.311 735.292C671.126 718.968 664.392 699.622 663.109 677.253H722.751C723.905 690.674 728.523 701.859 736.603 710.807C744.812 719.633 755.265 726.223 767.963 730.576C780.79 734.808 794.834 736.924 810.097 736.924C826.9 736.924 841.842 734.446 854.925 729.488C868.136 724.41 878.525 717.397 886.093 708.449C893.66 699.38 897.444 688.8 897.444 676.708C897.444 665.705 894.109 656.697 887.439 649.684C880.898 642.671 871.984 636.867 860.697 632.272C849.538 627.677 836.904 623.626 822.795 620.12L776.236 608.149C744.684 600.048 719.673 588.138 701.203 572.418C682.862 556.699 673.691 535.902 673.691 510.026C673.691 488.624 679.848 469.942 692.161 453.981C704.474 438.021 721.148 425.627 742.183 416.8C763.218 407.852 786.946 403.378 813.368 403.378C840.047 403.378 863.583 407.792 883.976 416.618C904.498 425.445 920.659 437.597 932.459 453.075C944.259 468.431 950.416 486.085 950.929 506.036H893.596Z" fill="white"/>
<path d="M1147.22 785.533C1119.51 785.533 1095.34 779.547 1074.69 767.577C1054.04 755.606 1038 738.859 1026.59 717.336C1015.17 695.813 1009.46 670.663 1009.46 641.885C1009.46 612.986 1015.17 587.714 1026.59 566.07C1038 544.426 1054.04 527.619 1074.69 515.649C1095.34 503.678 1119.51 497.693 1147.22 497.693C1174.92 497.693 1199.1 503.678 1219.75 515.649C1240.4 527.619 1256.43 544.426 1267.85 566.07C1279.26 587.714 1284.97 612.986 1284.97 641.885C1284.97 670.663 1279.26 695.813 1267.85 717.336C1256.43 738.859 1240.4 755.606 1219.75 767.577C1199.1 779.547 1174.92 785.533 1147.22 785.533ZM1147.41 740.008C1165.37 740.008 1180.24 735.534 1192.04 726.586C1203.85 717.638 1212.57 705.728 1218.21 690.856C1223.98 675.983 1226.87 659.599 1226.87 641.703C1226.87 623.929 1223.98 607.605 1218.21 592.732C1212.57 577.739 1203.85 565.708 1192.04 556.639C1180.24 547.57 1165.37 543.036 1147.41 543.036C1129.32 543.036 1114.32 547.57 1102.39 556.639C1090.59 565.708 1081.8 577.739 1076.03 592.732C1070.39 607.605 1067.57 623.929 1067.57 641.703C1067.57 659.599 1070.39 675.983 1076.03 690.856C1081.8 705.728 1090.59 717.638 1102.39 726.586C1114.32 735.534 1129.32 740.008 1147.41 740.008Z" fill="white"/>
<path d="M1406.71 408.457V779.91H1349.18V408.457H1406.71Z" fill="white"/>
<path d="M1671.3 664.375V501.32H1729.01V779.91H1672.45V731.665H1669.37C1662.57 746.537 1651.67 758.931 1636.66 768.846C1621.79 778.64 1603.25 783.538 1581.06 783.538C1562.08 783.538 1545.28 779.608 1530.66 771.748C1516.16 763.768 1504.75 751.978 1496.41 736.38C1488.2 720.782 1484.1 701.496 1484.1 678.522V501.32H1541.62V671.993C1541.62 690.976 1547.2 706.091 1558.36 717.336C1569.52 728.581 1584.01 734.204 1601.84 734.204C1612.62 734.204 1623.33 731.665 1633.97 726.586C1644.75 721.508 1653.66 713.83 1660.71 703.552C1667.9 693.274 1671.42 680.215 1671.3 664.375Z" fill="white"/>
<path d="M1944.25 501.32V544.85H1782.83V501.32H1944.25ZM1826.12 434.574H1883.65V698.11C1883.65 708.63 1885.32 716.55 1888.65 721.87C1891.99 727.07 1896.28 730.637 1901.54 732.572C1906.93 734.385 1912.76 735.292 1919.05 735.292C1923.67 735.292 1927.71 734.99 1931.17 734.385C1934.63 733.781 1937.33 733.297 1939.25 732.934L1949.64 777.734C1946.3 778.943 1941.56 780.152 1935.4 781.361C1929.25 782.691 1921.55 783.417 1912.32 783.538C1897.18 783.779 1883.07 781.24 1869.99 775.92C1856.91 770.6 1846.32 762.377 1838.24 751.253C1830.16 740.129 1826.12 726.163 1826.12 709.356V434.574Z" fill="white"/>
<path d="M2007.89 779.91V501.32H2065.41V779.91H2007.89ZM2036.94 458.334C2026.93 458.334 2018.34 455.191 2011.16 448.903C2004.1 442.494 2000.58 434.877 2000.58 426.05C2000.58 417.102 2004.1 409.484 2011.16 403.197C2018.34 396.788 2026.93 393.584 2036.94 393.584C2046.94 393.584 2055.47 396.788 2062.53 403.197C2069.71 409.484 2073.3 417.102 2073.3 426.05C2073.3 434.877 2069.71 442.494 2062.53 448.903C2055.47 455.191 2046.94 458.334 2036.94 458.334Z" fill="white"/>
<path d="M2267.28 785.533C2239.58 785.533 2215.4 779.547 2194.75 767.577C2174.1 755.606 2158.06 738.859 2146.65 717.336C2135.23 695.813 2129.53 670.663 2129.53 641.885C2129.53 612.986 2135.23 587.714 2146.65 566.07C2158.06 544.426 2174.1 527.619 2194.75 515.649C2215.4 503.678 2239.58 497.693 2267.28 497.693C2294.98 497.693 2319.16 503.678 2339.81 515.649C2360.46 527.619 2376.49 544.426 2387.91 566.07C2399.33 587.714 2405.03 612.986 2405.03 641.885C2405.03 670.663 2399.33 695.813 2387.91 717.336C2376.49 738.859 2360.46 755.606 2339.81 767.577C2319.16 779.547 2294.98 785.533 2267.28 785.533ZM2267.47 740.008C2285.43 740.008 2300.31 735.534 2312.11 726.586C2323.91 717.638 2332.63 705.728 2338.27 690.856C2344.04 675.983 2346.93 659.599 2346.93 641.703C2346.93 623.929 2344.04 607.605 2338.27 592.732C2332.63 577.739 2323.91 565.708 2312.11 556.639C2300.31 547.57 2285.43 543.036 2267.47 543.036C2249.39 543.036 2234.38 547.57 2222.45 556.639C2210.65 565.708 2201.87 577.739 2196.09 592.732C2190.45 607.605 2187.63 623.929 2187.63 641.703C2187.63 659.599 2190.45 675.983 2196.09 690.856C2201.87 705.728 2210.65 717.638 2222.45 726.586C2234.38 735.534 2249.39 740.008 2267.47 740.008Z" fill="white"/>
<path d="M2526.77 614.497V779.91H2469.24V501.32H2524.46V546.663H2528.12C2534.91 531.912 2545.56 520.062 2560.05 511.114C2574.67 502.166 2593.08 497.693 2615.27 497.693C2635.41 497.693 2653.04 501.683 2668.18 509.663C2683.31 517.523 2695.05 529.252 2703.39 544.85C2711.72 560.448 2715.89 579.734 2715.89 602.708V779.91H2658.37V609.237C2658.37 589.044 2652.79 573.265 2641.63 561.899C2630.47 550.412 2615.14 544.668 2595.65 544.668C2582.31 544.668 2570.44 547.389 2560.05 552.83C2549.79 558.271 2541.65 566.252 2535.62 576.771C2529.72 587.17 2526.77 599.745 2526.77 614.497Z" fill="white"/>
<path d="M3014.48 569.335L2962.35 578.041C2960.17 571.753 2956.7 565.768 2951.96 560.085C2947.34 554.402 2941.05 549.747 2933.1 546.119C2925.15 542.492 2915.21 540.678 2903.28 540.678C2886.99 540.678 2873.4 544.124 2862.49 551.016C2851.59 557.788 2846.14 566.554 2846.14 577.316C2846.14 586.626 2849.8 594.123 2857.11 599.806C2864.42 605.489 2876.22 610.144 2892.51 613.772L2939.45 623.929C2966.64 629.853 2986.91 638.983 3000.25 651.316C3013.59 663.649 3020.26 679.671 3020.26 699.38C3020.26 716.066 3015.13 730.939 3004.87 743.998C2994.73 756.936 2980.56 767.093 2962.35 774.469C2944.26 781.845 2923.29 785.533 2899.43 785.533C2866.34 785.533 2839.34 778.882 2818.44 765.582C2797.53 752.16 2784.7 733.116 2779.96 708.449L2835.56 700.468C2839.02 714.132 2846.14 724.47 2856.92 731.483C2867.69 738.375 2881.73 741.822 2899.05 741.822C2917.9 741.822 2932.97 738.134 2944.26 730.758C2955.55 723.261 2961.19 714.132 2961.19 703.37C2961.19 694.664 2957.73 687.349 2950.8 681.424C2944 675.499 2933.55 671.025 2919.44 668.002L2869.42 657.664C2841.84 651.739 2821.45 642.308 2808.24 629.37C2795.16 616.432 2788.62 600.048 2788.62 580.218C2788.62 563.773 2793.49 549.384 2803.24 537.051C2812.99 524.717 2826.45 515.104 2843.64 508.212C2860.83 501.199 2880.52 497.693 2902.7 497.693C2934.64 497.693 2959.78 504.222 2978.12 517.281C2996.46 530.219 3008.58 547.57 3014.48 569.335Z" fill="white"/>
</g>
<g filter="url(#filter2_d_3529_801)">
<path d="M663.109 888.85L3023.54 888.85" stroke="#BD0A0A" stroke-width="5"/>
</g>
<path d="M0 420C0 384.654 28.6538 356 64 356H261.799H439.113C474.459 356 503.113 384.654 503.113 420V528.622V634.044C503.113 669.391 474.459 698.044 439.113 698.044H243.278C225.097 698.044 207.774 705.777 195.635 719.311L118.103 805.752C114.549 810.014 107.679 806.532 109.015 801.146L127.539 726.473C131.123 712.022 120.189 698.044 105.3 698.044H59.1907C26.6597 698.044 0.270916 671.705 0.209732 639.174L0 527.661V420Z" fill="#BD0A0A"/>
<g filter="url(#filter3_i_3529_801)">
<path d="M435.597 604.766C435.597 614.372 427.808 622.159 418.201 622.159C408.593 622.159 400.805 614.372 400.805 604.766C400.805 595.16 408.593 587.373 418.201 587.373C427.808 587.373 435.597 595.16 435.597 604.766Z" fill="white"/>
</g>
<g filter="url(#filter4_i_3529_801)">
<path d="M77.2891 429.877C77.2891 428.772 78.1845 427.877 79.2891 427.877H118.341C119.446 427.877 120.341 428.772 120.341 429.877V585.757C120.341 586.862 121.237 587.757 122.341 587.757H210.597C211.701 587.757 212.597 588.653 212.597 589.757V622.653C212.597 623.757 211.701 624.653 210.597 624.653H79.2891C78.1845 624.653 77.2891 623.757 77.2891 622.653V429.877Z" fill="white"/>
</g>
<g filter="url(#filter5_i_3529_801)">
<path d="M231.25 428.377C231.25 427.272 232.145 426.377 233.25 426.377H394.59C395.695 426.377 396.59 427.272 396.59 428.377V461.113C396.59 462.217 395.695 463.113 394.59 463.113H337.364C336.255 463.113 335.358 464.014 335.364 465.123L336.167 620.29C336.173 621.399 335.276 622.301 334.167 622.301H294.487C293.383 622.301 292.487 621.405 292.487 620.301V465.113C292.487 464.008 291.592 463.113 290.487 463.113H233.25C232.145 463.113 231.25 462.217 231.25 461.113V428.377Z" fill="white"/>
</g>
<defs>
<filter id="filter0_d_3529_801" x="718.859" y="0" width="1239.61" height="209.727" filterUnits="userSpaceOnUse" color-interpolation-filters="sRGB">
<feFlood flood-opacity="0" result="BackgroundImageFix"/>
<feColorMatrix in="SourceAlpha" type="matrix" values="0 0 0 0 0 0 0 0 0 0 0 0 0 0 0 0 0 0 127 0" result="hardAlpha"/>
<feOffset dx="1" dy="1"/>
<feGaussianBlur stdDeviation="0.5"/>
<feComposite in2="hardAlpha" operator="out"/>
<feColorMatrix type="matrix" values="0 0 0 0 0.101961 0 0 0 0 0.0823529 0 0 0 0 0.247059 0 0 0 0.19 0"/>
<feBlend mode="normal" in2="BackgroundImageFix" result="effect1_dropShadow_3529_801"/>
<feBlend mode="normal" in="SourceGraphic" in2="effect1_dropShadow_3529_801" result="shape"/>
</filter>
<filter id="filter1_i_3529_801" x="663.109" y="393.584" width="2358.15" height="393.492" filterUnits="userSpaceOnUse" color-interpolation-filters="sRGB">
<feFlood flood-opacity="0" result="BackgroundImageFix"/>
<feBlend mode="normal" in="SourceGraphic" in2="BackgroundImageFix" result="shape"/>
<feColorMatrix in="SourceAlpha" type="matrix" values="0 0 0 0 0 0 0 0 0 0 0 0 0 0 0 0 0 0 127 0" result="hardAlpha"/>
<feOffset dx="2" dy="2"/>
<feGaussianBlur stdDeviation="0.5"/>
<feComposite in2="hardAlpha" operator="arithmetic" k2="-1" k3="1"/>
<feColorMatrix type="matrix" values="0 0 0 0 0 0 0 0 0 0 0 0 0 0 0 0 0 0 0.75 0"/>
<feBlend mode="normal" in2="shape" result="effect1_innerShadow_3529_801"/>
</filter>
<filter id="filter2_d_3529_801" x="663.109" y="886.35" width="2361.03" height="5.6" filterUnits="userSpaceOnUse" color-interpolation-filters="sRGB">
<feFlood flood-opacity="0" result="BackgroundImageFix"/>
<feColorMatrix in="SourceAlpha" type="matrix" values="0 0 0 0 0 0 0 0 0 0 0 0 0 0 0 0 0 0 127 0" result="hardAlpha"/>
<feOffset dx="0.5" dy="0.5"/>
<feGaussianBlur stdDeviation="0.05"/>
<feComposite in2="hardAlpha" operator="out"/>
<feColorMatrix type="matrix" values="0 0 0 0 0 0 0 0 0 0 0 0 0 0 0 0 0 0 0.25 0"/>
<feBlend mode="normal" in2="BackgroundImageFix" result="effect1_dropShadow_3529_801"/>
<feBlend mode="normal" in="SourceGraphic" in2="effect1_dropShadow_3529_801" result="shape"/>
</filter>
<filter id="filter3_i_3529_801" x="400.805" y="587.373" width="35.7891" height="35.7852" filterUnits="userSpaceOnUse" color-interpolation-filters="sRGB">
<feFlood flood-opacity="0" result="BackgroundImageFix"/>
<feBlend mode="normal" in="SourceGraphic" in2="BackgroundImageFix" result="shape"/>
<feColorMatrix in="SourceAlpha" type="matrix" values="0 0 0 0 0 0 0 0 0 0 0 0 0 0 0 0 0 0 127 0" result="hardAlpha"/>
<feOffset dx="2" dy="2"/>
<feGaussianBlur stdDeviation="0.5"/>
<feComposite in2="hardAlpha" operator="arithmetic" k2="-1" k3="1"/>
<feColorMatrix type="matrix" values="0 0 0 0 0 0 0 0 0 0 0 0 0 0 0 0 0 0 0.75 0"/>
<feBlend mode="normal" in2="shape" result="effect1_innerShadow_3529_801"/>
</filter>
<filter id="filter4_i_3529_801" x="77.2891" y="427.877" width="136.305" height="197.775" filterUnits="userSpaceOnUse" color-interpolation-filters="sRGB">
<feFlood flood-opacity="0" result="BackgroundImageFix"/>
<feBlend mode="normal" in="SourceGraphic" in2="BackgroundImageFix" result="shape"/>
<feColorMatrix in="SourceAlpha" type="matrix" values="0 0 0 0 0 0 0 0 0 0 0 0 0 0 0 0 0 0 127 0" result="hardAlpha"/>
<feOffset dx="2" dy="2"/>
<feGaussianBlur stdDeviation="0.5"/>
<feComposite in2="hardAlpha" operator="arithmetic" k2="-1" k3="1"/>
<feColorMatrix type="matrix" values="0 0 0 0 0 0 0 0 0 0 0 0 0 0 0 0 0 0 0.75 0"/>
<feBlend mode="normal" in2="shape" result="effect1_innerShadow_3529_801"/>
</filter>
<filter id="filter5_i_3529_801" x="231.25" y="426.377" width="166.344" height="196.924" filterUnits="userSpaceOnUse" color-interpolation-filters="sRGB">
<feFlood flood-opacity="0" result="BackgroundImageFix"/>
<feBlend mode="normal" in="SourceGraphic" in2="BackgroundImageFix" result="shape"/>
<feColorMatrix in="SourceAlpha" type="matrix" values="0 0 0 0 0 0 0 0 0 0 0 0 0 0 0 0 0 0 127 0" result="hardAlpha"/>
<feOffset dx="2" dy="2"/>
<feGaussianBlur stdDeviation="0.5"/>
<feComposite in2="hardAlpha" operator="arithmetic" k2="-1" k3="1"/>
<feColorMatrix type="matrix" values="0 0 0 0 0 0 0 0 0 0 0 0 0 0 0 0 0 0 0.75 0"/>
<feBlend mode="normal" in2="shape" result="effect1_innerShadow_3529_801"/>
</filter>
</defs>
</svg>
