<svg width="360" height="360" viewBox="0 0 360 360" fill="none" xmlns="http://www.w3.org/2000/svg">
<path d="M76.9952 214.357C76.9285 211.233 79.3927 208.735 82.2541 209.025L173.825 218.317C177.931 218.733 179.633 224.226 176.608 227.293L87.1734 317.977C84.1478 321.045 79.2279 318.815 79.1321 314.333L76.9952 214.357Z" fill="#BD0A0A"/>
<rect x="21.5547" y="10.5039" width="316.959" height="232.869" rx="20" fill="#BD0A0A"/>
<g filter="url(#filter0_i_3529_824)">
<path d="M303.85 175.085C303.85 180.944 299.1 185.692 293.241 185.692C287.382 185.692 282.633 180.944 282.633 175.085C282.633 169.227 287.382 164.479 293.241 164.479C299.1 164.479 303.85 169.227 303.85 175.085Z" fill="white"/>
</g>
<g filter="url(#filter1_i_3529_824)">
<path d="M70.8516 69.209C70.8516 68.1044 71.747 67.209 72.8516 67.209H95.106C96.2105 67.209 97.106 68.1044 97.106 69.209V162.71C97.106 163.815 98.0014 164.71 99.106 164.71H151.365C152.47 164.71 153.365 165.606 153.365 166.71V185.21C153.365 186.315 152.47 187.21 151.365 187.21H72.8516C71.747 187.21 70.8516 186.315 70.8516 185.21V69.209Z" fill="white"/>
</g>
<g filter="url(#filter2_i_3529_824)">
<path d="M167.578 68.2949C167.578 67.1903 168.474 66.2949 169.578 66.2949H266.407C267.511 66.2949 268.407 67.1904 268.407 68.2949V86.6978C268.407 87.8024 267.511 88.6978 266.407 88.6978H233.073C231.965 88.6978 231.067 89.5995 231.073 90.7081L231.555 183.767C231.561 184.875 230.664 185.777 229.555 185.777H206.922C205.817 185.777 204.922 184.881 204.922 183.777V90.6978C204.922 89.5932 204.027 88.6978 202.922 88.6978H169.578C168.474 88.6978 167.578 87.8024 167.578 86.6978V68.2949Z" fill="white"/>
</g>
<defs>
<filter id="filter0_i_3529_824" x="282.633" y="164.479" width="22.2188" height="22.2148" filterUnits="userSpaceOnUse" color-interpolation-filters="sRGB">
<feFlood flood-opacity="0" result="BackgroundImageFix"/>
<feBlend mode="normal" in="SourceGraphic" in2="BackgroundImageFix" result="shape"/>
<feColorMatrix in="SourceAlpha" type="matrix" values="0 0 0 0 0 0 0 0 0 0 0 0 0 0 0 0 0 0 127 0" result="hardAlpha"/>
<feOffset dx="2" dy="2"/>
<feGaussianBlur stdDeviation="0.5"/>
<feComposite in2="hardAlpha" operator="arithmetic" k2="-1" k3="1"/>
<feColorMatrix type="matrix" values="0 0 0 0 0 0 0 0 0 0 0 0 0 0 0 0 0 0 0.75 0"/>
<feBlend mode="normal" in2="shape" result="effect1_innerShadow_3529_824"/>
</filter>
<filter id="filter1_i_3529_824" x="70.8516" y="67.209" width="83.5156" height="121.002" filterUnits="userSpaceOnUse" color-interpolation-filters="sRGB">
<feFlood flood-opacity="0" result="BackgroundImageFix"/>
<feBlend mode="normal" in="SourceGraphic" in2="BackgroundImageFix" result="shape"/>
<feColorMatrix in="SourceAlpha" type="matrix" values="0 0 0 0 0 0 0 0 0 0 0 0 0 0 0 0 0 0 127 0" result="hardAlpha"/>
<feOffset dx="2" dy="2"/>
<feGaussianBlur stdDeviation="0.5"/>
<feComposite in2="hardAlpha" operator="arithmetic" k2="-1" k3="1"/>
<feColorMatrix type="matrix" values="0 0 0 0 0 0 0 0 0 0 0 0 0 0 0 0 0 0 0.75 0"/>
<feBlend mode="normal" in2="shape" result="effect1_innerShadow_3529_824"/>
</filter>
<filter id="filter2_i_3529_824" x="167.578" y="66.2949" width="101.828" height="120.482" filterUnits="userSpaceOnUse" color-interpolation-filters="sRGB">
<feFlood flood-opacity="0" result="BackgroundImageFix"/>
<feBlend mode="normal" in="SourceGraphic" in2="BackgroundImageFix" result="shape"/>
<feColorMatrix in="SourceAlpha" type="matrix" values="0 0 0 0 0 0 0 0 0 0 0 0 0 0 0 0 0 0 127 0" result="hardAlpha"/>
<feOffset dx="2" dy="2"/>
<feGaussianBlur stdDeviation="0.5"/>
<feComposite in2="hardAlpha" operator="arithmetic" k2="-1" k3="1"/>
<feColorMatrix type="matrix" values="0 0 0 0 0 0 0 0 0 0 0 0 0 0 0 0 0 0 0.75 0"/>
<feBlend mode="normal" in2="shape" result="effect1_innerShadow_3529_824"/>
</filter>
</defs>
</svg>
