<svg width="103" height="102" viewBox="0 0 103 102" fill="none" xmlns="http://www.w3.org/2000/svg">
<path opacity="0.75" d="M34 28C41.1977 28 47 33.6141 47 40.5C47 47.3859 41.1977 53 34 53C26.8023 53 21 47.3859 21 40.5C21 33.6141 26.8023 28 34 28Z" fill="white" stroke="white"/>
<path opacity="0.75" d="M71.5 43C77.3212 43 82 47.4988 82 53C82 58.5012 77.3212 63 71.5 63C65.6788 63 61 58.5012 61 53C61 47.4988 65.6788 43 71.5 43Z" fill="white" stroke="white"/>
<g opacity="0.75">
<mask id="path-3-inside-1_3609_48" fill="white">
<path d="M60.5 74.5C60.5 67.8333 64.1667 64.5 71.5 64.5C78.8333 64.5 82.5 67.8333 82.5 74.5"/>
</mask>
<path d="M60.5 74.5C60.5 67.8333 64.1667 64.5 71.5 64.5C78.8333 64.5 82.5 67.8333 82.5 74.5" fill="#B7B2B2"/>
<path d="M60.5 74.5H61.5C61.5 71.3467 62.3628 69.158 63.9227 67.7399C65.5006 66.3054 67.9651 65.5 71.5 65.5V64.5V63.5C67.7015 63.5 64.666 64.3612 62.5773 66.2601C60.4706 68.1753 59.5 70.9867 59.5 74.5H60.5ZM71.5 64.5V65.5C75.0349 65.5 77.4994 66.3054 79.0773 67.7399C80.6372 69.158 81.5 71.3467 81.5 74.5H82.5H83.5C83.5 70.9867 82.5294 68.1753 80.4227 66.2601C78.334 64.3612 75.2985 63.5 71.5 63.5V64.5Z" fill="white" mask="url(#path-3-inside-1_3609_48)"/>
</g>
<path opacity="0.75" d="M51.5 100.5C79.1142 100.5 101.5 78.3381 101.5 51C101.5 23.6619 79.1142 1.5 51.5 1.5C23.8858 1.5 1.5 23.6619 1.5 51C1.5 78.3381 23.8858 100.5 51.5 100.5Z" stroke="white" stroke-width="3" stroke-dasharray="10 5"/>
<g opacity="0.75">
<mask id="path-6-inside-2_3609_48" fill="white">
<path d="M20.8242 67.1416C20.8242 58.4795 25.1553 54.1484 33.8174 54.1484C42.4795 54.1484 46.8105 58.4795 46.8105 67.1416"/>
</mask>
<path d="M20.8242 67.1416C20.8242 58.4795 25.1553 54.1484 33.8174 54.1484C42.4795 54.1484 46.8105 58.4795 46.8105 67.1416" fill="#6C6B6B"/>
<path d="M20.8242 67.1416H21.8242C21.8242 62.9647 22.8678 60.0157 24.7796 58.1038C26.6915 56.192 29.6405 55.1484 33.8174 55.1484V54.1484V53.1484C29.3322 53.1484 25.7846 54.2704 23.3654 56.6896C20.9462 59.1088 19.8242 62.6564 19.8242 67.1416H20.8242ZM33.8174 54.1484V55.1484C37.9943 55.1484 40.9433 56.192 42.8551 58.1038C44.767 60.0157 45.8105 62.9647 45.8105 67.1416H46.8105H47.8105C47.8105 62.6564 46.6885 59.1088 44.2693 56.6896C41.8501 54.2704 38.3026 53.1484 33.8174 53.1484V54.1484Z" fill="white" mask="url(#path-6-inside-2_3609_48)"/>
</g>
</svg>
