<svg width="494" height="172" viewBox="0 0 494 172" fill="none" xmlns="http://www.w3.org/2000/svg">
<path d="M0 0H494V129L410 172L283.5 95L0 129V0Z" fill="#BD0A0A"/>
<path d="M0 0H494V129L410 172L283.5 95L0 129V0Z" fill="#BD0A0A"/>
<path d="M394.5 50.5C401.698 50.5 407.5 56.1141 407.5 63C407.5 69.8859 401.698 75.5 394.5 75.5C387.302 75.5 381.5 69.8859 381.5 63C381.5 56.1141 387.302 50.5 394.5 50.5Z" fill="white" stroke="white"/>
<path d="M436 61.5C441.821 61.5 446.5 65.9988 446.5 71.5C446.5 77.0012 441.821 81.5 436 81.5C430.179 81.5 425.5 77.0012 425.5 71.5C425.5 65.9988 430.179 61.5 436 61.5Z" fill="white" stroke="white"/>
<mask id="path-4-inside-1_3567_49" fill="white">
<path d="M425 93C425 86.3333 428.667 83 436 83C443.333 83 447 86.3333 447 93"/>
</mask>
<path d="M425 93C425 86.3333 428.667 83 436 83C443.333 83 447 86.3333 447 93" fill="white"/>
<path d="M425 93H426C426 89.8467 426.863 87.658 428.423 86.2399C430.001 84.8054 432.465 84 436 84V83V82C432.202 82 429.166 82.8612 427.077 84.7601C424.971 86.6753 424 89.4867 424 93H425ZM436 83V84C439.535 84 441.999 84.8054 443.577 86.2399C445.137 87.658 446 89.8467 446 93H447H448C448 89.4867 447.029 86.6753 444.923 84.7601C442.834 82.8612 439.798 82 436 82V83Z" fill="white" mask="url(#path-4-inside-1_3567_49)"/>
<path d="M414 121C441.614 121 464 98.8381 464 71.5C464 44.1619 441.614 22 414 22C386.386 22 364 44.1619 364 71.5C364 98.8381 386.386 121 414 121Z" stroke="white" stroke-width="3" stroke-dasharray="10 5"/>
<mask id="path-7-inside-2_3567_49" fill="white">
<path d="M381.324 89.6416C381.324 80.9795 385.655 76.6484 394.317 76.6484C402.979 76.6484 407.311 80.9795 407.311 89.6416"/>
</mask>
<path d="M381.324 89.6416C381.324 80.9795 385.655 76.6484 394.317 76.6484C402.979 76.6484 407.311 80.9795 407.311 89.6416" fill="white"/>
<path d="M381.324 89.6416H382.324C382.324 85.4647 383.368 82.5157 385.28 80.6038C387.191 78.692 390.14 77.6484 394.317 77.6484V76.6484V75.6484C389.832 75.6484 386.285 76.7704 383.865 79.1896C381.446 81.6088 380.324 85.1564 380.324 89.6416H381.324ZM394.317 76.6484V77.6484C398.494 77.6484 401.443 78.692 403.355 80.6038C405.267 82.5157 406.311 85.4647 406.311 89.6416H407.311H408.311C408.311 85.1564 407.189 81.6088 404.769 79.1896C402.35 76.7704 398.803 75.6484 394.317 75.6484V76.6484Z" fill="white" mask="url(#path-7-inside-2_3567_49)"/>
</svg>
