<svg width="494" height="172" viewBox="0 0 494 172" fill="none" xmlns="http://www.w3.org/2000/svg">
<path d="M0 0H494V129L410 172L283.5 95L0 129V0Z" fill="#BD0A0A"/>
<path d="M0 0H494V129L410 172L283.5 95L0 129V0Z" fill="#BD0A0A"/>
<path d="M394.5 53.5C401.698 53.5 407.5 59.1141 407.5 66C407.5 72.8859 401.698 78.5 394.5 78.5C387.302 78.5 381.5 72.8859 381.5 66C381.5 59.1141 387.302 53.5 394.5 53.5Z" fill="white" stroke="white"/>
<path d="M436 64.5C441.821 64.5 446.5 68.9988 446.5 74.5C446.5 80.0012 441.821 84.5 436 84.5C430.179 84.5 425.5 80.0012 425.5 74.5C425.5 68.9988 430.179 64.5 436 64.5Z" fill="white" stroke="white"/>
<mask id="path-4-inside-1_3567_49" fill="white">
<path d="M425 96C425 89.3333 428.667 86 436 86C443.333 86 447 89.3333 447 96"/>
</mask>
<path d="M425 96C425 89.3333 428.667 86 436 86C443.333 86 447 89.3333 447 96" fill="white"/>
<path d="M425 96H426C426 92.8467 426.863 90.658 428.423 89.2399C430.001 87.8054 432.465 87 436 87V86V85C432.202 85 429.166 85.8612 427.077 87.7601C424.971 89.6753 424 92.4867 424 96H425ZM436 86V87C439.535 87 441.999 87.8054 443.577 89.2399C445.137 90.658 446 92.8467 446 96H447H448C448 92.4867 447.029 89.6753 444.923 87.7601C442.834 85.8612 439.798 85 436 85V86Z" fill="white" mask="url(#path-4-inside-1_3567_49)"/>
<path d="M414 124C441.614 124 464 101.838 464 74.5C464 47.1619 441.614 25 414 25C386.386 25 364 47.1619 364 74.5C364 101.838 386.386 124 414 124Z" stroke="white" stroke-width="3" stroke-dasharray="10 5"/>
<mask id="path-7-inside-2_3567_49" fill="white">
<path d="M381.324 92.6416C381.324 83.9795 385.655 79.6484 394.317 79.6484C402.979 79.6484 407.311 83.9795 407.311 92.6416"/>
</mask>
<path d="M381.324 92.6416C381.324 83.9795 385.655 79.6484 394.317 79.6484C402.979 79.6484 407.311 83.9795 407.311 92.6416" fill="white"/>
<path d="M381.324 92.6416H382.324C382.324 88.4647 383.368 85.5157 385.28 83.6038C387.191 81.692 390.14 80.6484 394.317 80.6484V79.6484V78.6484C389.832 78.6484 386.285 79.7704 383.865 82.1896C381.446 84.6088 380.324 88.1564 380.324 92.6416H381.324ZM394.317 79.6484V80.6484C398.494 80.6484 401.443 81.692 403.355 83.6038C405.267 85.5157 406.311 88.4647 406.311 92.6416H407.311H408.311C408.311 88.1564 407.189 84.6088 404.769 82.1896C402.35 79.7704 398.803 78.6484 394.317 78.6484V79.6484Z" fill="white" mask="url(#path-7-inside-2_3567_49)"/>
</svg>
