<svg width="103" height="102" viewBox="0 0 103 102" fill="none" xmlns="http://www.w3.org/2000/svg">
<path d="M32 30C39.1977 30 45 35.6141 45 42.5C45 49.3859 39.1977 55 32 55C24.8023 55 19 49.3859 19 42.5C19 35.6141 24.8023 30 32 30Z" fill="white" stroke="white"/>
<path d="M73.5 41C79.3212 41 84 45.4988 84 51C84 56.5012 79.3212 61 73.5 61C67.6788 61 63 56.5012 63 51C63 45.4988 67.6788 41 73.5 41Z" fill="white" stroke="white"/>
<mask id="path-3-inside-1_3567_49" fill="white">
<path d="M62.5 72.5C62.5 65.8333 66.1667 62.5 73.5 62.5C80.8333 62.5 84.5 65.8333 84.5 72.5"/>
</mask>
<path d="M62.5 72.5C62.5 65.8333 66.1667 62.5 73.5 62.5C80.8333 62.5 84.5 65.8333 84.5 72.5" fill="white"/>
<path d="M62.5 72.5H63.5C63.5 69.3467 64.3628 67.158 65.9227 65.7399C67.5006 64.3054 69.9651 63.5 73.5 63.5V62.5V61.5C69.7015 61.5 66.666 62.3612 64.5773 64.2601C62.4706 66.1753 61.5 68.9867 61.5 72.5H62.5ZM73.5 62.5V63.5C77.0349 63.5 79.4994 64.3054 81.0773 65.7399C82.6372 67.158 83.5 69.3467 83.5 72.5H84.5H85.5C85.5 68.9867 84.5294 66.1753 82.4227 64.2601C80.334 62.3612 77.2985 61.5 73.5 61.5V62.5Z" fill="white" mask="url(#path-3-inside-1_3567_49)"/>
<path d="M51.5 100.5C79.1142 100.5 101.5 78.3381 101.5 51C101.5 23.6619 79.1142 1.5 51.5 1.5C23.8858 1.5 1.5 23.6619 1.5 51C1.5 78.3381 23.8858 100.5 51.5 100.5Z" stroke="white" stroke-width="3" stroke-dasharray="10 5"/>
<mask id="path-6-inside-2_3567_49" fill="white">
<path d="M18.8242 69.1416C18.8242 60.4795 23.1553 56.1484 31.8174 56.1484C40.4795 56.1484 44.8105 60.4795 44.8105 69.1416"/>
</mask>
<path d="M18.8242 69.1416C18.8242 60.4795 23.1553 56.1484 31.8174 56.1484C40.4795 56.1484 44.8105 60.4795 44.8105 69.1416" fill="white"/>
<path d="M18.8242 69.1416H19.8242C19.8242 64.9647 20.8678 62.0157 22.7796 60.1038C24.6915 58.192 27.6405 57.1484 31.8174 57.1484V56.1484V55.1484C27.3322 55.1484 23.7846 56.2704 21.3654 58.6896C18.9462 61.1088 17.8242 64.6564 17.8242 69.1416H18.8242ZM31.8174 56.1484V57.1484C35.9943 57.1484 38.9433 58.192 40.8551 60.1038C42.767 62.0157 43.8105 64.9647 43.8105 69.1416H44.8105H45.8105C45.8105 64.6564 44.6885 61.1088 42.2693 58.6896C39.8501 56.2704 36.3026 55.1484 31.8174 55.1484V56.1484Z" fill="white" mask="url(#path-6-inside-2_3567_49)"/>
</svg>
